<mxfile host="app.diagrams.net" modified="2022-02-17T15:04:26.697Z" agent="5.0 (X11)" etag="vtywFDZhAF3SsJYNfNON" version="16.5.6" type="github" pages="4">
  <diagram id="qPFN2O4QtwzGvO3hdgeA" name="SIGNUP">
    <mxGraphModel dx="1422" dy="905" grid="1" gridSize="10" guides="1" tooltips="1" connect="1" arrows="1" fold="1" page="1" pageScale="1" pageWidth="827" pageHeight="1169" math="0" shadow="0">
      <root>
        <mxCell id="0" />
        <mxCell id="1" parent="0" />
        <mxCell id="wCEwPDmBS2UL5agAo656-1" value="&lt;div style=&quot;font-size: 24px&quot;&gt;&lt;font style=&quot;font-size: 24px&quot; color=&quot;#FFFFFF&quot;&gt;AWS&lt;br&gt;&lt;/font&gt;&lt;/div&gt;" style="rounded=1;whiteSpace=wrap;html=1;fillColor=#FF99CC;strokeColor=none;arcSize=0;align=center;gradientColor=none;verticalAlign=top;" vertex="1" parent="1">
          <mxGeometry x="540" y="20" width="260" height="660" as="geometry" />
        </mxCell>
        <mxCell id="wCEwPDmBS2UL5agAo656-2" value="&lt;div style=&quot;font-size: 24px&quot;&gt;&lt;font style=&quot;font-size: 24px&quot; color=&quot;#FFFFFF&quot;&gt;FIREBASE&lt;br&gt;&lt;/font&gt;&lt;/div&gt;" style="rounded=1;whiteSpace=wrap;html=1;fillColor=#DBBEBB;strokeColor=none;arcSize=0;align=center;verticalAlign=top;" vertex="1" parent="1">
          <mxGeometry x="280" y="20" width="260" height="660" as="geometry" />
        </mxCell>
        <mxCell id="wCEwPDmBS2UL5agAo656-3" value="&lt;div style=&quot;font-size: 24px&quot; align=&quot;right&quot;&gt;&lt;font style=&quot;font-size: 24px&quot;&gt;Visualise&amp;nbsp; &lt;br&gt;&lt;/font&gt;&lt;/div&gt;" style="rounded=1;whiteSpace=wrap;html=1;fillColor=#CC99FF;strokeColor=none;arcSize=0;align=right;fontColor=#ffffff;" vertex="1" parent="1">
          <mxGeometry x="20" y="680" width="780" height="80" as="geometry" />
        </mxCell>
        <mxCell id="wCEwPDmBS2UL5agAo656-4" value="&lt;div style=&quot;font-size: 24px&quot;&gt;&lt;font style=&quot;font-size: 24px&quot; color=&quot;#FFFFFF&quot;&gt;USER&lt;br&gt;&lt;/font&gt;&lt;/div&gt;" style="rounded=1;whiteSpace=wrap;html=1;fillColor=#FFCC99;strokeColor=none;arcSize=0;align=center;verticalAlign=top;" vertex="1" parent="1">
          <mxGeometry x="20" y="20" width="260" height="660" as="geometry" />
        </mxCell>
        <mxCell id="wCEwPDmBS2UL5agAo656-5" value="SIGNUP" style="rounded=1;whiteSpace=wrap;html=1;" vertex="1" parent="1">
          <mxGeometry x="90" y="170" width="120" height="60" as="geometry" />
        </mxCell>
        <mxCell id="wCEwPDmBS2UL5agAo656-13" value="" style="edgeStyle=orthogonalEdgeStyle;rounded=0;orthogonalLoop=1;jettySize=auto;html=1;" edge="1" parent="1" source="wCEwPDmBS2UL5agAo656-6" target="wCEwPDmBS2UL5agAo656-11">
          <mxGeometry relative="1" as="geometry" />
        </mxCell>
        <mxCell id="wCEwPDmBS2UL5agAo656-6" value="Create User Request" style="rounded=1;whiteSpace=wrap;html=1;" vertex="1" parent="1">
          <mxGeometry x="354" y="170" width="120" height="60" as="geometry" />
        </mxCell>
        <mxCell id="wCEwPDmBS2UL5agAo656-7" value="" style="endArrow=classic;html=1;rounded=0;exitX=1;exitY=0.5;exitDx=0;exitDy=0;" edge="1" parent="1" source="wCEwPDmBS2UL5agAo656-5" target="wCEwPDmBS2UL5agAo656-6">
          <mxGeometry width="50" height="50" relative="1" as="geometry">
            <mxPoint x="390" y="380" as="sourcePoint" />
            <mxPoint x="440" y="330" as="targetPoint" />
          </mxGeometry>
        </mxCell>
        <mxCell id="wCEwPDmBS2UL5agAo656-8" value="EMAIL" style="rounded=1;whiteSpace=wrap;html=1;" vertex="1" parent="1">
          <mxGeometry x="90" y="80" width="120" height="20" as="geometry" />
        </mxCell>
        <mxCell id="wCEwPDmBS2UL5agAo656-10" value="" style="edgeStyle=orthogonalEdgeStyle;rounded=0;orthogonalLoop=1;jettySize=auto;html=1;" edge="1" parent="1" source="wCEwPDmBS2UL5agAo656-9" target="wCEwPDmBS2UL5agAo656-5">
          <mxGeometry relative="1" as="geometry" />
        </mxCell>
        <mxCell id="wCEwPDmBS2UL5agAo656-9" value="PASSWORD" style="rounded=1;whiteSpace=wrap;html=1;" vertex="1" parent="1">
          <mxGeometry x="90" y="100" width="120" height="20" as="geometry" />
        </mxCell>
        <mxCell id="wCEwPDmBS2UL5agAo656-15" value="" style="edgeStyle=orthogonalEdgeStyle;rounded=0;orthogonalLoop=1;jettySize=auto;html=1;entryX=1;entryY=0.5;entryDx=0;entryDy=0;" edge="1" parent="1" source="wCEwPDmBS2UL5agAo656-11" target="wCEwPDmBS2UL5agAo656-14">
          <mxGeometry relative="1" as="geometry" />
        </mxCell>
        <mxCell id="wCEwPDmBS2UL5agAo656-11" value="User Created" style="rounded=1;whiteSpace=wrap;html=1;" vertex="1" parent="1">
          <mxGeometry x="354" y="260" width="120" height="60" as="geometry" />
        </mxCell>
        <mxCell id="wCEwPDmBS2UL5agAo656-17" value="" style="edgeStyle=orthogonalEdgeStyle;rounded=0;orthogonalLoop=1;jettySize=auto;html=1;" edge="1" parent="1" source="wCEwPDmBS2UL5agAo656-14" target="wCEwPDmBS2UL5agAo656-16">
          <mxGeometry relative="1" as="geometry" />
        </mxCell>
        <mxCell id="wCEwPDmBS2UL5agAo656-14" value="SUCCESS" style="rounded=1;whiteSpace=wrap;html=1;" vertex="1" parent="1">
          <mxGeometry x="90" y="260" width="120" height="60" as="geometry" />
        </mxCell>
        <mxCell id="wCEwPDmBS2UL5agAo656-16" value="SIGN_IN" style="rounded=1;whiteSpace=wrap;html=1;" vertex="1" parent="1">
          <mxGeometry x="90" y="350" width="120" height="60" as="geometry" />
        </mxCell>
      </root>
    </mxGraphModel>
  </diagram>
  <diagram id="kdkCQHt-luk5ca-ei6ay" name="CREATE_VM">
    <mxGraphModel dx="1185" dy="754" grid="1" gridSize="10" guides="1" tooltips="1" connect="1" arrows="1" fold="1" page="1" pageScale="1" pageWidth="827" pageHeight="1169" math="0" shadow="0">
      <root>
        <mxCell id="wFwtJdxJIFEa6F8bQh_8-0" />
        <mxCell id="wFwtJdxJIFEa6F8bQh_8-1" parent="wFwtJdxJIFEa6F8bQh_8-0" />
        <mxCell id="wFwtJdxJIFEa6F8bQh_8-2" value="&lt;div style=&quot;font-size: 24px&quot;&gt;&lt;font style=&quot;font-size: 24px&quot; color=&quot;#FFFFFF&quot;&gt;AWS&lt;br&gt;&lt;/font&gt;&lt;/div&gt;" style="rounded=1;whiteSpace=wrap;html=1;fillColor=#FF99CC;strokeColor=none;arcSize=0;align=center;gradientColor=none;verticalAlign=top;" vertex="1" parent="wFwtJdxJIFEa6F8bQh_8-1">
          <mxGeometry x="540" y="20" width="260" height="660" as="geometry" />
        </mxCell>
        <mxCell id="wFwtJdxJIFEa6F8bQh_8-3" value="&lt;div style=&quot;font-size: 24px&quot;&gt;&lt;font style=&quot;font-size: 24px&quot; color=&quot;#FFFFFF&quot;&gt;FIREBASE&lt;br&gt;&lt;/font&gt;&lt;/div&gt;" style="rounded=1;whiteSpace=wrap;html=1;fillColor=#DBBEBB;strokeColor=none;arcSize=0;align=center;verticalAlign=top;" vertex="1" parent="wFwtJdxJIFEa6F8bQh_8-1">
          <mxGeometry x="280" y="20" width="260" height="660" as="geometry" />
        </mxCell>
        <mxCell id="wFwtJdxJIFEa6F8bQh_8-4" value="&lt;div style=&quot;font-size: 24px&quot; align=&quot;right&quot;&gt;&lt;font style=&quot;font-size: 24px&quot;&gt;Visualise&amp;nbsp; &lt;br&gt;&lt;/font&gt;&lt;/div&gt;" style="rounded=1;whiteSpace=wrap;html=1;fillColor=#CC99FF;strokeColor=none;arcSize=0;align=right;fontColor=#ffffff;" vertex="1" parent="wFwtJdxJIFEa6F8bQh_8-1">
          <mxGeometry x="20" y="680" width="780" height="80" as="geometry" />
        </mxCell>
        <mxCell id="wFwtJdxJIFEa6F8bQh_8-5" value="&lt;div style=&quot;font-size: 24px&quot;&gt;&lt;font style=&quot;font-size: 24px&quot; color=&quot;#FFFFFF&quot;&gt;USER&lt;br&gt;&lt;/font&gt;&lt;/div&gt;" style="rounded=1;whiteSpace=wrap;html=1;fillColor=#FFCC99;strokeColor=none;arcSize=0;align=center;verticalAlign=top;" vertex="1" parent="wFwtJdxJIFEa6F8bQh_8-1">
          <mxGeometry x="20" y="20" width="260" height="660" as="geometry" />
        </mxCell>
        <mxCell id="wFwtJdxJIFEa6F8bQh_8-19" value="" style="edgeStyle=orthogonalEdgeStyle;rounded=0;orthogonalLoop=1;jettySize=auto;html=1;" edge="1" parent="wFwtJdxJIFEa6F8bQh_8-1" source="wFwtJdxJIFEa6F8bQh_8-17" target="wFwtJdxJIFEa6F8bQh_8-18">
          <mxGeometry relative="1" as="geometry" />
        </mxCell>
        <mxCell id="wFwtJdxJIFEa6F8bQh_8-17" value="SIGNED_IN" style="rounded=1;whiteSpace=wrap;html=1;" vertex="1" parent="wFwtJdxJIFEa6F8bQh_8-1">
          <mxGeometry x="90" y="80" width="120" height="60" as="geometry" />
        </mxCell>
        <mxCell id="kQKyKwENuOIKJwMR25AR-2" value="" style="edgeStyle=orthogonalEdgeStyle;rounded=0;orthogonalLoop=1;jettySize=auto;html=1;" edge="1" parent="wFwtJdxJIFEa6F8bQh_8-1" source="wFwtJdxJIFEa6F8bQh_8-18" target="kQKyKwENuOIKJwMR25AR-1">
          <mxGeometry relative="1" as="geometry" />
        </mxCell>
        <mxCell id="wFwtJdxJIFEa6F8bQh_8-18" value="CREATE_VM" style="rounded=1;whiteSpace=wrap;html=1;" vertex="1" parent="wFwtJdxJIFEa6F8bQh_8-1">
          <mxGeometry x="90" y="200" width="120" height="60" as="geometry" />
        </mxCell>
        <mxCell id="kQKyKwENuOIKJwMR25AR-0" value="VM_TYPE" style="rounded=1;whiteSpace=wrap;html=1;" vertex="1" parent="wFwtJdxJIFEa6F8bQh_8-1">
          <mxGeometry x="90" y="160" width="120" height="20" as="geometry" />
        </mxCell>
        <mxCell id="kQKyKwENuOIKJwMR25AR-4" value="" style="edgeStyle=orthogonalEdgeStyle;rounded=0;orthogonalLoop=1;jettySize=auto;html=1;" edge="1" parent="wFwtJdxJIFEa6F8bQh_8-1" source="kQKyKwENuOIKJwMR25AR-1" target="kQKyKwENuOIKJwMR25AR-3">
          <mxGeometry relative="1" as="geometry" />
        </mxCell>
        <mxCell id="kQKyKwENuOIKJwMR25AR-5" value="YES" style="edgeLabel;html=1;align=center;verticalAlign=middle;resizable=0;points=[];" vertex="1" connectable="0" parent="kQKyKwENuOIKJwMR25AR-4">
          <mxGeometry x="-0.2143" y="-5" relative="1" as="geometry">
            <mxPoint x="-20" y="-5" as="offset" />
          </mxGeometry>
        </mxCell>
        <mxCell id="kQKyKwENuOIKJwMR25AR-8" style="edgeStyle=orthogonalEdgeStyle;rounded=0;orthogonalLoop=1;jettySize=auto;html=1;entryX=1;entryY=0.5;entryDx=0;entryDy=0;" edge="1" parent="wFwtJdxJIFEa6F8bQh_8-1" source="kQKyKwENuOIKJwMR25AR-1" target="kQKyKwENuOIKJwMR25AR-7">
          <mxGeometry relative="1" as="geometry">
            <Array as="points">
              <mxPoint x="410" y="320" />
            </Array>
          </mxGeometry>
        </mxCell>
        <mxCell id="kQKyKwENuOIKJwMR25AR-9" value="NO" style="edgeLabel;html=1;align=center;verticalAlign=middle;resizable=0;points=[];" vertex="1" connectable="0" parent="kQKyKwENuOIKJwMR25AR-8">
          <mxGeometry x="-0.6077" y="4" relative="1" as="geometry">
            <mxPoint x="-4" y="-31" as="offset" />
          </mxGeometry>
        </mxCell>
        <mxCell id="kQKyKwENuOIKJwMR25AR-1" value="HAS_ACCESS to VM_TYPE" style="rounded=1;whiteSpace=wrap;html=1;" vertex="1" parent="wFwtJdxJIFEa6F8bQh_8-1">
          <mxGeometry x="350" y="200" width="120" height="60" as="geometry" />
        </mxCell>
        <mxCell id="kQKyKwENuOIKJwMR25AR-22" style="edgeStyle=orthogonalEdgeStyle;rounded=0;orthogonalLoop=1;jettySize=auto;html=1;entryX=1;entryY=0.5;entryDx=0;entryDy=0;" edge="1" parent="wFwtJdxJIFEa6F8bQh_8-1" source="kQKyKwENuOIKJwMR25AR-3" target="kQKyKwENuOIKJwMR25AR-16">
          <mxGeometry relative="1" as="geometry">
            <Array as="points">
              <mxPoint x="670" y="460" />
            </Array>
          </mxGeometry>
        </mxCell>
        <mxCell id="kQKyKwENuOIKJwMR25AR-27" style="edgeStyle=orthogonalEdgeStyle;rounded=0;orthogonalLoop=1;jettySize=auto;html=1;" edge="1" parent="wFwtJdxJIFEa6F8bQh_8-1" source="kQKyKwENuOIKJwMR25AR-3" target="kQKyKwENuOIKJwMR25AR-26">
          <mxGeometry relative="1" as="geometry" />
        </mxCell>
        <mxCell id="kQKyKwENuOIKJwMR25AR-3" value="CLONE_VM" style="rounded=1;whiteSpace=wrap;html=1;" vertex="1" parent="wFwtJdxJIFEa6F8bQh_8-1">
          <mxGeometry x="610" y="200" width="120" height="60" as="geometry" />
        </mxCell>
        <mxCell id="kQKyKwENuOIKJwMR25AR-20" value="" style="edgeStyle=orthogonalEdgeStyle;rounded=0;orthogonalLoop=1;jettySize=auto;html=1;" edge="1" parent="wFwtJdxJIFEa6F8bQh_8-1" source="kQKyKwENuOIKJwMR25AR-7" target="kQKyKwENuOIKJwMR25AR-19">
          <mxGeometry relative="1" as="geometry" />
        </mxCell>
        <mxCell id="kQKyKwENuOIKJwMR25AR-7" value="Message: Please Purchase Course or Contact ADMIN" style="rounded=1;whiteSpace=wrap;html=1;" vertex="1" parent="wFwtJdxJIFEa6F8bQh_8-1">
          <mxGeometry x="90" y="290" width="120" height="60" as="geometry" />
        </mxCell>
        <mxCell id="kQKyKwENuOIKJwMR25AR-13" value="" style="edgeStyle=orthogonalEdgeStyle;rounded=0;orthogonalLoop=1;jettySize=auto;html=1;" edge="1" parent="wFwtJdxJIFEa6F8bQh_8-1" source="kQKyKwENuOIKJwMR25AR-12" target="kQKyKwENuOIKJwMR25AR-3">
          <mxGeometry relative="1" as="geometry" />
        </mxCell>
        <mxCell id="kQKyKwENuOIKJwMR25AR-12" value="CourseTemplate" style="rounded=1;whiteSpace=wrap;html=1;" vertex="1" parent="wFwtJdxJIFEa6F8bQh_8-1">
          <mxGeometry x="610" y="80" width="120" height="60" as="geometry" />
        </mxCell>
        <mxCell id="kQKyKwENuOIKJwMR25AR-14" value="&lt;div&gt;Create&lt;/div&gt;&lt;div&gt;VM_OBJECT&lt;/div&gt;" style="rounded=1;whiteSpace=wrap;html=1;" vertex="1" parent="wFwtJdxJIFEa6F8bQh_8-1">
          <mxGeometry x="350" y="350" width="120" height="60" as="geometry" />
        </mxCell>
        <mxCell id="kQKyKwENuOIKJwMR25AR-15" value="VM_TYPE" style="rounded=1;whiteSpace=wrap;html=1;" vertex="1" parent="wFwtJdxJIFEa6F8bQh_8-1">
          <mxGeometry x="350" y="410" width="120" height="20" as="geometry" />
        </mxCell>
        <mxCell id="kQKyKwENuOIKJwMR25AR-16" value="AWS VM_ID" style="rounded=1;whiteSpace=wrap;html=1;" vertex="1" parent="wFwtJdxJIFEa6F8bQh_8-1">
          <mxGeometry x="350" y="450" width="120" height="20" as="geometry" />
        </mxCell>
        <mxCell id="kQKyKwENuOIKJwMR25AR-19" value="" style="shape=waypoint;sketch=0;size=6;pointerEvents=1;points=[];fillColor=default;resizable=0;rotatable=0;perimeter=centerPerimeter;snapToPoint=1;rounded=1;" vertex="1" parent="wFwtJdxJIFEa6F8bQh_8-1">
          <mxGeometry x="20" y="300" width="40" height="40" as="geometry" />
        </mxCell>
        <mxCell id="kQKyKwENuOIKJwMR25AR-21" value="" style="edgeStyle=elbowEdgeStyle;elbow=vertical;endArrow=classic;html=1;rounded=0;entryX=1;entryY=0.5;entryDx=0;entryDy=0;" edge="1" parent="wFwtJdxJIFEa6F8bQh_8-1" target="kQKyKwENuOIKJwMR25AR-14">
          <mxGeometry width="50" height="50" relative="1" as="geometry">
            <mxPoint x="530" y="230" as="sourcePoint" />
            <mxPoint x="410" y="360" as="targetPoint" />
            <Array as="points">
              <mxPoint x="500" y="380" />
              <mxPoint x="510" y="380" />
            </Array>
          </mxGeometry>
        </mxCell>
        <mxCell id="kQKyKwENuOIKJwMR25AR-23" value="" style="edgeStyle=elbowEdgeStyle;elbow=horizontal;endArrow=classic;html=1;rounded=0;" edge="1" parent="wFwtJdxJIFEa6F8bQh_8-1" target="kQKyKwENuOIKJwMR25AR-15">
          <mxGeometry width="50" height="50" relative="1" as="geometry">
            <mxPoint x="530" y="380" as="sourcePoint" />
            <mxPoint x="410" y="360" as="targetPoint" />
            <Array as="points">
              <mxPoint x="530" y="400" />
            </Array>
          </mxGeometry>
        </mxCell>
        <mxCell id="kQKyKwENuOIKJwMR25AR-24" value="OWNER_ID" style="rounded=1;whiteSpace=wrap;html=1;" vertex="1" parent="wFwtJdxJIFEa6F8bQh_8-1">
          <mxGeometry x="350" y="430" width="120" height="20" as="geometry" />
        </mxCell>
        <mxCell id="kQKyKwENuOIKJwMR25AR-25" value="" style="edgeStyle=elbowEdgeStyle;elbow=horizontal;endArrow=classic;html=1;rounded=0;" edge="1" parent="wFwtJdxJIFEa6F8bQh_8-1" target="kQKyKwENuOIKJwMR25AR-24">
          <mxGeometry width="50" height="50" relative="1" as="geometry">
            <mxPoint x="530" y="400" as="sourcePoint" />
            <mxPoint x="470" y="440" as="targetPoint" />
            <Array as="points">
              <mxPoint x="530" y="420" />
            </Array>
          </mxGeometry>
        </mxCell>
        <mxCell id="kQKyKwENuOIKJwMR25AR-29" style="edgeStyle=orthogonalEdgeStyle;rounded=0;orthogonalLoop=1;jettySize=auto;html=1;entryX=1;entryY=0.5;entryDx=0;entryDy=0;" edge="1" parent="wFwtJdxJIFEa6F8bQh_8-1" source="kQKyKwENuOIKJwMR25AR-26" target="kQKyKwENuOIKJwMR25AR-28">
          <mxGeometry relative="1" as="geometry" />
        </mxCell>
        <mxCell id="kQKyKwENuOIKJwMR25AR-26" value="VM_READY" style="rounded=1;whiteSpace=wrap;html=1;" vertex="1" parent="wFwtJdxJIFEa6F8bQh_8-1">
          <mxGeometry x="610" y="510" width="120" height="60" as="geometry" />
        </mxCell>
        <mxCell id="kQKyKwENuOIKJwMR25AR-28" value="Message: SUCCESS" style="rounded=1;whiteSpace=wrap;html=1;" vertex="1" parent="wFwtJdxJIFEa6F8bQh_8-1">
          <mxGeometry x="90" y="510" width="120" height="60" as="geometry" />
        </mxCell>
      </root>
    </mxGraphModel>
  </diagram>
  <diagram id="NDntFCh9i55Cn7wFQwT_" name="START_VM">
    <mxGraphModel dx="1422" dy="905" grid="1" gridSize="10" guides="1" tooltips="1" connect="1" arrows="1" fold="1" page="1" pageScale="1" pageWidth="827" pageHeight="1169" math="0" shadow="0">
      <root>
        <mxCell id="FAhIAUkTJ4w_7zMufDWl-0" />
        <mxCell id="FAhIAUkTJ4w_7zMufDWl-1" parent="FAhIAUkTJ4w_7zMufDWl-0" />
        <mxCell id="HIYZiUBFkT_tf0GIqLtl-0" value="&lt;div style=&quot;font-size: 24px&quot;&gt;&lt;font style=&quot;font-size: 24px&quot; color=&quot;#FFFFFF&quot;&gt;AWS&lt;br&gt;&lt;/font&gt;&lt;/div&gt;" style="rounded=1;whiteSpace=wrap;html=1;fillColor=#FF99CC;strokeColor=none;arcSize=0;align=center;gradientColor=none;verticalAlign=top;" vertex="1" parent="FAhIAUkTJ4w_7zMufDWl-1">
          <mxGeometry x="540" y="20" width="260" height="660" as="geometry" />
        </mxCell>
        <mxCell id="HIYZiUBFkT_tf0GIqLtl-1" value="&lt;div style=&quot;font-size: 24px&quot;&gt;&lt;font style=&quot;font-size: 24px&quot; color=&quot;#FFFFFF&quot;&gt;FIREBASE&lt;br&gt;&lt;/font&gt;&lt;/div&gt;" style="rounded=1;whiteSpace=wrap;html=1;fillColor=#DBBEBB;strokeColor=none;arcSize=0;align=center;verticalAlign=top;" vertex="1" parent="FAhIAUkTJ4w_7zMufDWl-1">
          <mxGeometry x="280" y="20" width="260" height="660" as="geometry" />
        </mxCell>
        <mxCell id="HIYZiUBFkT_tf0GIqLtl-2" value="&lt;div style=&quot;font-size: 24px&quot; align=&quot;right&quot;&gt;&lt;font style=&quot;font-size: 24px&quot;&gt;Visualise&amp;nbsp; &lt;br&gt;&lt;/font&gt;&lt;/div&gt;" style="rounded=1;whiteSpace=wrap;html=1;fillColor=#CC99FF;strokeColor=none;arcSize=0;align=right;fontColor=#ffffff;" vertex="1" parent="FAhIAUkTJ4w_7zMufDWl-1">
          <mxGeometry x="20" y="680" width="780" height="80" as="geometry" />
        </mxCell>
        <mxCell id="HIYZiUBFkT_tf0GIqLtl-3" value="&lt;div style=&quot;font-size: 24px&quot;&gt;&lt;font style=&quot;font-size: 24px&quot; color=&quot;#FFFFFF&quot;&gt;USER&lt;br&gt;&lt;/font&gt;&lt;/div&gt;" style="rounded=1;whiteSpace=wrap;html=1;fillColor=#FFCC99;strokeColor=none;arcSize=0;align=center;verticalAlign=top;" vertex="1" parent="FAhIAUkTJ4w_7zMufDWl-1">
          <mxGeometry x="20" y="20" width="260" height="660" as="geometry" />
        </mxCell>
        <mxCell id="HIYZiUBFkT_tf0GIqLtl-4" value="" style="edgeStyle=orthogonalEdgeStyle;rounded=0;orthogonalLoop=1;jettySize=auto;html=1;" edge="1" parent="FAhIAUkTJ4w_7zMufDWl-1" source="HIYZiUBFkT_tf0GIqLtl-5" target="HIYZiUBFkT_tf0GIqLtl-7">
          <mxGeometry relative="1" as="geometry" />
        </mxCell>
        <mxCell id="HIYZiUBFkT_tf0GIqLtl-5" value="SIGNED_IN" style="rounded=1;whiteSpace=wrap;html=1;" vertex="1" parent="FAhIAUkTJ4w_7zMufDWl-1">
          <mxGeometry x="90" y="70" width="120" height="60" as="geometry" />
        </mxCell>
        <mxCell id="HIYZiUBFkT_tf0GIqLtl-6" value="" style="edgeStyle=orthogonalEdgeStyle;rounded=0;orthogonalLoop=1;jettySize=auto;html=1;exitX=1;exitY=0.5;exitDx=0;exitDy=0;" edge="1" parent="FAhIAUkTJ4w_7zMufDWl-1" source="HIYZiUBFkT_tf0GIqLtl-7" target="HIYZiUBFkT_tf0GIqLtl-71">
          <mxGeometry relative="1" as="geometry">
            <mxPoint x="350" y="230" as="targetPoint" />
            <Array as="points">
              <mxPoint x="230" y="260" />
              <mxPoint x="230" y="260" />
            </Array>
          </mxGeometry>
        </mxCell>
        <mxCell id="HIYZiUBFkT_tf0GIqLtl-7" value="START_VM" style="rounded=1;whiteSpace=wrap;html=1;" vertex="1" parent="FAhIAUkTJ4w_7zMufDWl-1">
          <mxGeometry x="90" y="230" width="120" height="60" as="geometry" />
        </mxCell>
        <mxCell id="HIYZiUBFkT_tf0GIqLtl-20" value="&lt;div&gt;VM_OBJECT&lt;/div&gt;" style="rounded=1;whiteSpace=wrap;html=1;" vertex="1" parent="FAhIAUkTJ4w_7zMufDWl-1">
          <mxGeometry x="350" y="70" width="120" height="60" as="geometry" />
        </mxCell>
        <mxCell id="HIYZiUBFkT_tf0GIqLtl-21" value="VM_TYPE" style="rounded=1;whiteSpace=wrap;html=1;" vertex="1" parent="FAhIAUkTJ4w_7zMufDWl-1">
          <mxGeometry x="350" y="130" width="120" height="20" as="geometry" />
        </mxCell>
        <mxCell id="HIYZiUBFkT_tf0GIqLtl-73" style="edgeStyle=orthogonalEdgeStyle;rounded=0;orthogonalLoop=1;jettySize=auto;html=1;entryX=0;entryY=0.25;entryDx=0;entryDy=0;" edge="1" parent="FAhIAUkTJ4w_7zMufDWl-1" source="HIYZiUBFkT_tf0GIqLtl-22" target="HIYZiUBFkT_tf0GIqLtl-71">
          <mxGeometry relative="1" as="geometry">
            <Array as="points">
              <mxPoint x="330" y="180" />
              <mxPoint x="330" y="245" />
            </Array>
          </mxGeometry>
        </mxCell>
        <mxCell id="HIYZiUBFkT_tf0GIqLtl-22" value="AWS VM_ID" style="rounded=1;whiteSpace=wrap;html=1;" vertex="1" parent="FAhIAUkTJ4w_7zMufDWl-1">
          <mxGeometry x="350" y="170" width="120" height="20" as="geometry" />
        </mxCell>
        <mxCell id="HIYZiUBFkT_tf0GIqLtl-26" value="OWNER_ID" style="rounded=1;whiteSpace=wrap;html=1;" vertex="1" parent="FAhIAUkTJ4w_7zMufDWl-1">
          <mxGeometry x="350" y="150" width="120" height="20" as="geometry" />
        </mxCell>
        <mxCell id="HIYZiUBFkT_tf0GIqLtl-68" style="edgeStyle=orthogonalEdgeStyle;rounded=0;orthogonalLoop=1;jettySize=auto;html=1;entryX=1;entryY=0.5;entryDx=0;entryDy=0;" edge="1" parent="FAhIAUkTJ4w_7zMufDWl-1" source="HIYZiUBFkT_tf0GIqLtl-29" target="HIYZiUBFkT_tf0GIqLtl-64">
          <mxGeometry relative="1" as="geometry">
            <Array as="points">
              <mxPoint x="510" y="420" />
              <mxPoint x="510" y="200" />
            </Array>
          </mxGeometry>
        </mxCell>
        <mxCell id="HIYZiUBFkT_tf0GIqLtl-76" value="" style="edgeStyle=orthogonalEdgeStyle;rounded=0;orthogonalLoop=1;jettySize=auto;html=1;" edge="1" parent="FAhIAUkTJ4w_7zMufDWl-1" source="HIYZiUBFkT_tf0GIqLtl-29" target="HIYZiUBFkT_tf0GIqLtl-75">
          <mxGeometry relative="1" as="geometry" />
        </mxCell>
        <mxCell id="HIYZiUBFkT_tf0GIqLtl-29" value="VM_READY" style="rounded=1;whiteSpace=wrap;html=1;" vertex="1" parent="FAhIAUkTJ4w_7zMufDWl-1">
          <mxGeometry x="610" y="390" width="120" height="60" as="geometry" />
        </mxCell>
        <mxCell id="HIYZiUBFkT_tf0GIqLtl-31" value="SELECT_VM" style="rounded=1;whiteSpace=wrap;html=1;" vertex="1" parent="FAhIAUkTJ4w_7zMufDWl-1">
          <mxGeometry x="90" y="160" width="120" height="20" as="geometry" />
        </mxCell>
        <mxCell id="HIYZiUBFkT_tf0GIqLtl-64" value="VM_STATUS" style="rounded=1;whiteSpace=wrap;html=1;" vertex="1" parent="FAhIAUkTJ4w_7zMufDWl-1">
          <mxGeometry x="350" y="190" width="120" height="20" as="geometry" />
        </mxCell>
        <mxCell id="HIYZiUBFkT_tf0GIqLtl-67" style="edgeStyle=orthogonalEdgeStyle;rounded=0;orthogonalLoop=1;jettySize=auto;html=1;entryX=0.5;entryY=0;entryDx=0;entryDy=0;" edge="1" parent="FAhIAUkTJ4w_7zMufDWl-1" source="HIYZiUBFkT_tf0GIqLtl-65" target="HIYZiUBFkT_tf0GIqLtl-29">
          <mxGeometry relative="1" as="geometry" />
        </mxCell>
        <mxCell id="HIYZiUBFkT_tf0GIqLtl-65" value="START_VM" style="rounded=1;whiteSpace=wrap;html=1;" vertex="1" parent="FAhIAUkTJ4w_7zMufDWl-1">
          <mxGeometry x="610" y="230" width="120" height="60" as="geometry" />
        </mxCell>
        <mxCell id="HIYZiUBFkT_tf0GIqLtl-72" style="edgeStyle=orthogonalEdgeStyle;rounded=0;orthogonalLoop=1;jettySize=auto;html=1;entryX=0;entryY=0.5;entryDx=0;entryDy=0;" edge="1" parent="FAhIAUkTJ4w_7zMufDWl-1" source="HIYZiUBFkT_tf0GIqLtl-71" target="HIYZiUBFkT_tf0GIqLtl-65">
          <mxGeometry relative="1" as="geometry" />
        </mxCell>
        <mxCell id="HIYZiUBFkT_tf0GIqLtl-71" value="Function: START_VM " style="rounded=1;whiteSpace=wrap;html=1;" vertex="1" parent="FAhIAUkTJ4w_7zMufDWl-1">
          <mxGeometry x="350" y="230" width="120" height="60" as="geometry" />
        </mxCell>
        <mxCell id="HIYZiUBFkT_tf0GIqLtl-75" value="" style="shape=waypoint;sketch=0;size=6;pointerEvents=1;points=[];fillColor=default;resizable=0;rotatable=0;perimeter=centerPerimeter;snapToPoint=1;rounded=1;" vertex="1" parent="FAhIAUkTJ4w_7zMufDWl-1">
          <mxGeometry x="650" y="540" width="40" height="40" as="geometry" />
        </mxCell>
      </root>
    </mxGraphModel>
  </diagram>
  <diagram id="tdZ42YhOzkXXz5kBoCW3" name="SET_UP REMOTE">
    <mxGraphModel dx="1422" dy="905" grid="1" gridSize="10" guides="1" tooltips="1" connect="1" arrows="1" fold="1" page="1" pageScale="1" pageWidth="827" pageHeight="1169" math="0" shadow="0">
      <root>
        <mxCell id="Jxm_NUAeSIuzkufVQnlZ-0" />
        <mxCell id="Jxm_NUAeSIuzkufVQnlZ-1" parent="Jxm_NUAeSIuzkufVQnlZ-0" />
        <mxCell id="RPwDoZMuxW8FG3lR_yCx-0" value="&lt;div style=&quot;font-size: 24px&quot;&gt;&lt;font style=&quot;font-size: 24px&quot; color=&quot;#FFFFFF&quot;&gt;AWS&lt;br&gt;&lt;/font&gt;&lt;/div&gt;" style="rounded=1;whiteSpace=wrap;html=1;fillColor=#FF99CC;strokeColor=none;arcSize=0;align=center;gradientColor=none;verticalAlign=top;" vertex="1" parent="Jxm_NUAeSIuzkufVQnlZ-1">
          <mxGeometry x="540" y="20" width="260" height="660" as="geometry" />
        </mxCell>
        <mxCell id="RPwDoZMuxW8FG3lR_yCx-1" value="&lt;div style=&quot;font-size: 24px&quot;&gt;&lt;font style=&quot;font-size: 24px&quot; color=&quot;#FFFFFF&quot;&gt;FIREBASE&lt;br&gt;&lt;/font&gt;&lt;/div&gt;" style="rounded=1;whiteSpace=wrap;html=1;fillColor=#DBBEBB;strokeColor=none;arcSize=0;align=center;verticalAlign=top;" vertex="1" parent="Jxm_NUAeSIuzkufVQnlZ-1">
          <mxGeometry x="280" y="20" width="260" height="660" as="geometry" />
        </mxCell>
        <mxCell id="RPwDoZMuxW8FG3lR_yCx-2" value="&lt;div style=&quot;font-size: 24px&quot; align=&quot;right&quot;&gt;&lt;font style=&quot;font-size: 24px&quot;&gt;Visualise&amp;nbsp; &lt;br&gt;&lt;/font&gt;&lt;/div&gt;" style="rounded=1;whiteSpace=wrap;html=1;fillColor=#CC99FF;strokeColor=none;arcSize=0;align=right;fontColor=#ffffff;" vertex="1" parent="Jxm_NUAeSIuzkufVQnlZ-1">
          <mxGeometry x="20" y="680" width="780" height="80" as="geometry" />
        </mxCell>
        <mxCell id="RPwDoZMuxW8FG3lR_yCx-3" value="&lt;div style=&quot;font-size: 24px&quot;&gt;&lt;font style=&quot;font-size: 24px&quot; color=&quot;#FFFFFF&quot;&gt;USER&lt;br&gt;&lt;/font&gt;&lt;/div&gt;" style="rounded=1;whiteSpace=wrap;html=1;fillColor=#FFCC99;strokeColor=none;arcSize=0;align=center;verticalAlign=top;" vertex="1" parent="Jxm_NUAeSIuzkufVQnlZ-1">
          <mxGeometry x="20" y="20" width="260" height="660" as="geometry" />
        </mxCell>
        <mxCell id="RPwDoZMuxW8FG3lR_yCx-4" value="" style="edgeStyle=orthogonalEdgeStyle;rounded=0;orthogonalLoop=1;jettySize=auto;html=1;" edge="1" parent="Jxm_NUAeSIuzkufVQnlZ-1" source="RPwDoZMuxW8FG3lR_yCx-5" target="RPwDoZMuxW8FG3lR_yCx-7">
          <mxGeometry relative="1" as="geometry" />
        </mxCell>
        <mxCell id="RPwDoZMuxW8FG3lR_yCx-5" value="SIGNED_IN" style="rounded=1;whiteSpace=wrap;html=1;" vertex="1" parent="Jxm_NUAeSIuzkufVQnlZ-1">
          <mxGeometry x="90" y="80" width="120" height="60" as="geometry" />
        </mxCell>
        <mxCell id="RPwDoZMuxW8FG3lR_yCx-6" value="" style="edgeStyle=orthogonalEdgeStyle;rounded=0;orthogonalLoop=1;jettySize=auto;html=1;" edge="1" parent="Jxm_NUAeSIuzkufVQnlZ-1" source="RPwDoZMuxW8FG3lR_yCx-7" target="RPwDoZMuxW8FG3lR_yCx-13">
          <mxGeometry relative="1" as="geometry" />
        </mxCell>
        <mxCell id="RPwDoZMuxW8FG3lR_yCx-7" value="SET_UP_REMOTE" style="rounded=1;whiteSpace=wrap;html=1;" vertex="1" parent="Jxm_NUAeSIuzkufVQnlZ-1">
          <mxGeometry x="90" y="200" width="120" height="60" as="geometry" />
        </mxCell>
        <mxCell id="RPwDoZMuxW8FG3lR_yCx-9" value="" style="edgeStyle=orthogonalEdgeStyle;rounded=0;orthogonalLoop=1;jettySize=auto;html=1;" edge="1" parent="Jxm_NUAeSIuzkufVQnlZ-1" source="RPwDoZMuxW8FG3lR_yCx-13" target="RPwDoZMuxW8FG3lR_yCx-16">
          <mxGeometry relative="1" as="geometry" />
        </mxCell>
        <mxCell id="RPwDoZMuxW8FG3lR_yCx-10" value="YES" style="edgeLabel;html=1;align=center;verticalAlign=middle;resizable=0;points=[];" vertex="1" connectable="0" parent="RPwDoZMuxW8FG3lR_yCx-9">
          <mxGeometry x="-0.2143" y="-5" relative="1" as="geometry">
            <mxPoint x="-20" y="-5" as="offset" />
          </mxGeometry>
        </mxCell>
        <mxCell id="RPwDoZMuxW8FG3lR_yCx-11" style="edgeStyle=orthogonalEdgeStyle;rounded=0;orthogonalLoop=1;jettySize=auto;html=1;entryX=1;entryY=0.5;entryDx=0;entryDy=0;" edge="1" parent="Jxm_NUAeSIuzkufVQnlZ-1" source="RPwDoZMuxW8FG3lR_yCx-13" target="RPwDoZMuxW8FG3lR_yCx-18">
          <mxGeometry relative="1" as="geometry">
            <Array as="points">
              <mxPoint x="410" y="320" />
            </Array>
          </mxGeometry>
        </mxCell>
        <mxCell id="RPwDoZMuxW8FG3lR_yCx-12" value="NO" style="edgeLabel;html=1;align=center;verticalAlign=middle;resizable=0;points=[];" vertex="1" connectable="0" parent="RPwDoZMuxW8FG3lR_yCx-11">
          <mxGeometry x="-0.6077" y="4" relative="1" as="geometry">
            <mxPoint x="-4" y="-31" as="offset" />
          </mxGeometry>
        </mxCell>
        <mxCell id="RPwDoZMuxW8FG3lR_yCx-13" value="HAS_ACCESS to VM_TYPE" style="rounded=1;whiteSpace=wrap;html=1;" vertex="1" parent="Jxm_NUAeSIuzkufVQnlZ-1">
          <mxGeometry x="350" y="200" width="120" height="60" as="geometry" />
        </mxCell>
        <mxCell id="RPwDoZMuxW8FG3lR_yCx-14" style="edgeStyle=orthogonalEdgeStyle;rounded=0;orthogonalLoop=1;jettySize=auto;html=1;entryX=1;entryY=0.5;entryDx=0;entryDy=0;" edge="1" parent="Jxm_NUAeSIuzkufVQnlZ-1" source="RPwDoZMuxW8FG3lR_yCx-16" target="RPwDoZMuxW8FG3lR_yCx-23">
          <mxGeometry relative="1" as="geometry">
            <Array as="points">
              <mxPoint x="670" y="460" />
            </Array>
          </mxGeometry>
        </mxCell>
        <mxCell id="RPwDoZMuxW8FG3lR_yCx-15" style="edgeStyle=orthogonalEdgeStyle;rounded=0;orthogonalLoop=1;jettySize=auto;html=1;" edge="1" parent="Jxm_NUAeSIuzkufVQnlZ-1" source="RPwDoZMuxW8FG3lR_yCx-16" target="RPwDoZMuxW8FG3lR_yCx-30">
          <mxGeometry relative="1" as="geometry" />
        </mxCell>
        <mxCell id="RPwDoZMuxW8FG3lR_yCx-16" value="CLONE_VM" style="rounded=1;whiteSpace=wrap;html=1;" vertex="1" parent="Jxm_NUAeSIuzkufVQnlZ-1">
          <mxGeometry x="610" y="200" width="120" height="60" as="geometry" />
        </mxCell>
        <mxCell id="RPwDoZMuxW8FG3lR_yCx-17" value="" style="edgeStyle=orthogonalEdgeStyle;rounded=0;orthogonalLoop=1;jettySize=auto;html=1;" edge="1" parent="Jxm_NUAeSIuzkufVQnlZ-1" source="RPwDoZMuxW8FG3lR_yCx-18" target="RPwDoZMuxW8FG3lR_yCx-24">
          <mxGeometry relative="1" as="geometry" />
        </mxCell>
        <mxCell id="RPwDoZMuxW8FG3lR_yCx-18" value="Message: Please Purchase Course or Contact ADMIN" style="rounded=1;whiteSpace=wrap;html=1;" vertex="1" parent="Jxm_NUAeSIuzkufVQnlZ-1">
          <mxGeometry x="90" y="290" width="120" height="60" as="geometry" />
        </mxCell>
        <mxCell id="RPwDoZMuxW8FG3lR_yCx-19" value="" style="edgeStyle=orthogonalEdgeStyle;rounded=0;orthogonalLoop=1;jettySize=auto;html=1;" edge="1" parent="Jxm_NUAeSIuzkufVQnlZ-1" source="RPwDoZMuxW8FG3lR_yCx-20" target="RPwDoZMuxW8FG3lR_yCx-16">
          <mxGeometry relative="1" as="geometry" />
        </mxCell>
        <mxCell id="RPwDoZMuxW8FG3lR_yCx-20" value="CourseTemplate" style="rounded=1;whiteSpace=wrap;html=1;" vertex="1" parent="Jxm_NUAeSIuzkufVQnlZ-1">
          <mxGeometry x="610" y="80" width="120" height="60" as="geometry" />
        </mxCell>
        <mxCell id="RPwDoZMuxW8FG3lR_yCx-21" value="&lt;div&gt;Create&lt;/div&gt;&lt;div&gt;VM_OBJECT&lt;/div&gt;" style="rounded=1;whiteSpace=wrap;html=1;" vertex="1" parent="Jxm_NUAeSIuzkufVQnlZ-1">
          <mxGeometry x="350" y="350" width="120" height="60" as="geometry" />
        </mxCell>
        <mxCell id="RPwDoZMuxW8FG3lR_yCx-22" value="VM_TYPE" style="rounded=1;whiteSpace=wrap;html=1;" vertex="1" parent="Jxm_NUAeSIuzkufVQnlZ-1">
          <mxGeometry x="350" y="410" width="120" height="20" as="geometry" />
        </mxCell>
        <mxCell id="RPwDoZMuxW8FG3lR_yCx-23" value="AWS VM_ID" style="rounded=1;whiteSpace=wrap;html=1;" vertex="1" parent="Jxm_NUAeSIuzkufVQnlZ-1">
          <mxGeometry x="350" y="450" width="120" height="20" as="geometry" />
        </mxCell>
        <mxCell id="RPwDoZMuxW8FG3lR_yCx-24" value="" style="shape=waypoint;sketch=0;size=6;pointerEvents=1;points=[];fillColor=default;resizable=0;rotatable=0;perimeter=centerPerimeter;snapToPoint=1;rounded=1;" vertex="1" parent="Jxm_NUAeSIuzkufVQnlZ-1">
          <mxGeometry x="20" y="300" width="40" height="40" as="geometry" />
        </mxCell>
        <mxCell id="RPwDoZMuxW8FG3lR_yCx-25" value="" style="edgeStyle=elbowEdgeStyle;elbow=vertical;endArrow=classic;html=1;rounded=0;entryX=1;entryY=0.5;entryDx=0;entryDy=0;" edge="1" parent="Jxm_NUAeSIuzkufVQnlZ-1" target="RPwDoZMuxW8FG3lR_yCx-21">
          <mxGeometry width="50" height="50" relative="1" as="geometry">
            <mxPoint x="530" y="230" as="sourcePoint" />
            <mxPoint x="410" y="360" as="targetPoint" />
            <Array as="points">
              <mxPoint x="500" y="380" />
              <mxPoint x="510" y="380" />
            </Array>
          </mxGeometry>
        </mxCell>
        <mxCell id="RPwDoZMuxW8FG3lR_yCx-26" value="" style="edgeStyle=elbowEdgeStyle;elbow=horizontal;endArrow=classic;html=1;rounded=0;" edge="1" parent="Jxm_NUAeSIuzkufVQnlZ-1" target="RPwDoZMuxW8FG3lR_yCx-22">
          <mxGeometry width="50" height="50" relative="1" as="geometry">
            <mxPoint x="530" y="380" as="sourcePoint" />
            <mxPoint x="410" y="360" as="targetPoint" />
            <Array as="points">
              <mxPoint x="530" y="400" />
            </Array>
          </mxGeometry>
        </mxCell>
        <mxCell id="RPwDoZMuxW8FG3lR_yCx-27" value="OWNER_ID" style="rounded=1;whiteSpace=wrap;html=1;" vertex="1" parent="Jxm_NUAeSIuzkufVQnlZ-1">
          <mxGeometry x="350" y="430" width="120" height="20" as="geometry" />
        </mxCell>
        <mxCell id="RPwDoZMuxW8FG3lR_yCx-28" value="" style="edgeStyle=elbowEdgeStyle;elbow=horizontal;endArrow=classic;html=1;rounded=0;" edge="1" parent="Jxm_NUAeSIuzkufVQnlZ-1" target="RPwDoZMuxW8FG3lR_yCx-27">
          <mxGeometry width="50" height="50" relative="1" as="geometry">
            <mxPoint x="530" y="400" as="sourcePoint" />
            <mxPoint x="470" y="440" as="targetPoint" />
            <Array as="points">
              <mxPoint x="530" y="420" />
            </Array>
          </mxGeometry>
        </mxCell>
        <mxCell id="RPwDoZMuxW8FG3lR_yCx-29" style="edgeStyle=orthogonalEdgeStyle;rounded=0;orthogonalLoop=1;jettySize=auto;html=1;entryX=1;entryY=0.5;entryDx=0;entryDy=0;" edge="1" parent="Jxm_NUAeSIuzkufVQnlZ-1" source="RPwDoZMuxW8FG3lR_yCx-30" target="RPwDoZMuxW8FG3lR_yCx-31">
          <mxGeometry relative="1" as="geometry" />
        </mxCell>
        <mxCell id="RPwDoZMuxW8FG3lR_yCx-30" value="VM_READY" style="rounded=1;whiteSpace=wrap;html=1;" vertex="1" parent="Jxm_NUAeSIuzkufVQnlZ-1">
          <mxGeometry x="610" y="510" width="120" height="60" as="geometry" />
        </mxCell>
        <mxCell id="RPwDoZMuxW8FG3lR_yCx-31" value="Message: SUCCESS" style="rounded=1;whiteSpace=wrap;html=1;" vertex="1" parent="Jxm_NUAeSIuzkufVQnlZ-1">
          <mxGeometry x="90" y="510" width="120" height="60" as="geometry" />
        </mxCell>
        <mxCell id="tqKJbw0qBZR-dGITpI2r-0" value="SELECT_VM" style="rounded=1;whiteSpace=wrap;html=1;" vertex="1" parent="Jxm_NUAeSIuzkufVQnlZ-1">
          <mxGeometry x="90" y="160" width="120" height="20" as="geometry" />
        </mxCell>
      </root>
    </mxGraphModel>
  </diagram>
</mxfile>
